<mxfile host="app.diagrams.net" modified="2022-05-16T21:38:32.854Z" agent="5.0 (Windows NT 10.0; Win64; x64) AppleWebKit/537.36 (KHTML, like Gecko) Chrome/100.0.4896.127 Safari/537.36 OPR/86.0.4363.59" etag="M59eFjvSDFGK9ZFsbGKn" version="18.0.6" type="github">
  <diagram name="Page-1" id="929967ad-93f9-6ef4-fab6-5d389245f69c">
    <mxGraphModel dx="662" dy="312" grid="1" gridSize="10" guides="1" tooltips="1" connect="1" arrows="1" fold="1" page="1" pageScale="1.5" pageWidth="1169" pageHeight="826" background="none" math="0" shadow="0">
      <root>
        <mxCell id="0" style=";html=1;" />
        <mxCell id="1" style=";html=1;" parent="0" />
        <mxCell id="ZEjFZ3OngBHXCwOHcY4--1" value="HOSPITAL" style="swimlane;fontStyle=0;childLayout=stackLayout;horizontal=1;startSize=26;fillColor=none;horizontalStack=0;resizeParent=1;resizeParentMax=0;resizeLast=0;collapsible=1;marginBottom=0;" vertex="1" parent="1">
          <mxGeometry x="710" y="70" width="140" height="104" as="geometry">
            <mxRectangle x="770" y="140" width="90" height="26" as="alternateBounds" />
          </mxGeometry>
        </mxCell>
        <mxCell id="ZEjFZ3OngBHXCwOHcY4--2" value="- Nombre" style="text;strokeColor=none;fillColor=none;align=left;verticalAlign=top;spacingLeft=4;spacingRight=4;overflow=hidden;rotatable=0;points=[[0,0.5],[1,0.5]];portConstraint=eastwest;" vertex="1" parent="ZEjFZ3OngBHXCwOHcY4--1">
          <mxGeometry y="26" width="140" height="26" as="geometry" />
        </mxCell>
        <mxCell id="ZEjFZ3OngBHXCwOHcY4--3" value="-Dirección" style="text;strokeColor=none;fillColor=none;align=left;verticalAlign=top;spacingLeft=4;spacingRight=4;overflow=hidden;rotatable=0;points=[[0,0.5],[1,0.5]];portConstraint=eastwest;" vertex="1" parent="ZEjFZ3OngBHXCwOHcY4--1">
          <mxGeometry y="52" width="140" height="26" as="geometry" />
        </mxCell>
        <mxCell id="ZEjFZ3OngBHXCwOHcY4--4" value="-Teléfono" style="text;strokeColor=none;fillColor=none;align=left;verticalAlign=top;spacingLeft=4;spacingRight=4;overflow=hidden;rotatable=0;points=[[0,0.5],[1,0.5]];portConstraint=eastwest;" vertex="1" parent="ZEjFZ3OngBHXCwOHcY4--1">
          <mxGeometry y="78" width="140" height="26" as="geometry" />
        </mxCell>
        <mxCell id="ZEjFZ3OngBHXCwOHcY4--5" value="Medico" style="swimlane;fontStyle=0;childLayout=stackLayout;horizontal=1;startSize=26;fillColor=none;horizontalStack=0;resizeParent=1;resizeParentMax=0;resizeLast=0;collapsible=1;marginBottom=0;" vertex="1" parent="1">
          <mxGeometry x="1050" y="70" width="140" height="104" as="geometry" />
        </mxCell>
        <mxCell id="ZEjFZ3OngBHXCwOHcY4--6" value="-Cédula" style="text;strokeColor=none;fillColor=none;align=left;verticalAlign=top;spacingLeft=4;spacingRight=4;overflow=hidden;rotatable=0;points=[[0,0.5],[1,0.5]];portConstraint=eastwest;" vertex="1" parent="ZEjFZ3OngBHXCwOHcY4--5">
          <mxGeometry y="26" width="140" height="26" as="geometry" />
        </mxCell>
        <mxCell id="ZEjFZ3OngBHXCwOHcY4--7" value="-Nombre" style="text;strokeColor=none;fillColor=none;align=left;verticalAlign=top;spacingLeft=4;spacingRight=4;overflow=hidden;rotatable=0;points=[[0,0.5],[1,0.5]];portConstraint=eastwest;" vertex="1" parent="ZEjFZ3OngBHXCwOHcY4--5">
          <mxGeometry y="52" width="140" height="26" as="geometry" />
        </mxCell>
        <mxCell id="ZEjFZ3OngBHXCwOHcY4--8" value="-Especialidad" style="text;strokeColor=none;fillColor=none;align=left;verticalAlign=top;spacingLeft=4;spacingRight=4;overflow=hidden;rotatable=0;points=[[0,0.5],[1,0.5]];portConstraint=eastwest;" vertex="1" parent="ZEjFZ3OngBHXCwOHcY4--5">
          <mxGeometry y="78" width="140" height="26" as="geometry" />
        </mxCell>
        <mxCell id="ZEjFZ3OngBHXCwOHcY4--9" value="Sala" style="swimlane;fontStyle=0;childLayout=stackLayout;horizontal=1;startSize=26;fillColor=none;horizontalStack=0;resizeParent=1;resizeParentMax=0;resizeLast=0;collapsible=1;marginBottom=0;" vertex="1" parent="1">
          <mxGeometry x="700" y="295" width="140" height="78" as="geometry" />
        </mxCell>
        <mxCell id="ZEjFZ3OngBHXCwOHcY4--10" value="-Número" style="text;strokeColor=none;fillColor=none;align=left;verticalAlign=top;spacingLeft=4;spacingRight=4;overflow=hidden;rotatable=0;points=[[0,0.5],[1,0.5]];portConstraint=eastwest;" vertex="1" parent="ZEjFZ3OngBHXCwOHcY4--9">
          <mxGeometry y="26" width="140" height="26" as="geometry" />
        </mxCell>
        <mxCell id="ZEjFZ3OngBHXCwOHcY4--11" value="-Cantidad_Camas" style="text;strokeColor=none;fillColor=none;align=left;verticalAlign=top;spacingLeft=4;spacingRight=4;overflow=hidden;rotatable=0;points=[[0,0.5],[1,0.5]];portConstraint=eastwest;" vertex="1" parent="ZEjFZ3OngBHXCwOHcY4--9">
          <mxGeometry y="52" width="140" height="26" as="geometry" />
        </mxCell>
        <mxCell id="ZEjFZ3OngBHXCwOHcY4--13" value="Paciente" style="swimlane;fontStyle=0;childLayout=stackLayout;horizontal=1;startSize=26;fillColor=none;horizontalStack=0;resizeParent=1;resizeParentMax=0;resizeLast=0;collapsible=1;marginBottom=0;" vertex="1" parent="1">
          <mxGeometry x="1050" y="295" width="140" height="130" as="geometry" />
        </mxCell>
        <mxCell id="ZEjFZ3OngBHXCwOHcY4--14" value="-Cédula    " style="text;strokeColor=none;fillColor=none;align=left;verticalAlign=top;spacingLeft=4;spacingRight=4;overflow=hidden;rotatable=0;points=[[0,0.5],[1,0.5]];portConstraint=eastwest;" vertex="1" parent="ZEjFZ3OngBHXCwOHcY4--13">
          <mxGeometry y="26" width="140" height="26" as="geometry" />
        </mxCell>
        <mxCell id="ZEjFZ3OngBHXCwOHcY4--15" value="-Nombre" style="text;strokeColor=none;fillColor=none;align=left;verticalAlign=top;spacingLeft=4;spacingRight=4;overflow=hidden;rotatable=0;points=[[0,0.5],[1,0.5]];portConstraint=eastwest;" vertex="1" parent="ZEjFZ3OngBHXCwOHcY4--13">
          <mxGeometry y="52" width="140" height="26" as="geometry" />
        </mxCell>
        <mxCell id="ZEjFZ3OngBHXCwOHcY4--16" value="-Dirección" style="text;strokeColor=none;fillColor=none;align=left;verticalAlign=top;spacingLeft=4;spacingRight=4;overflow=hidden;rotatable=0;points=[[0,0.5],[1,0.5]];portConstraint=eastwest;" vertex="1" parent="ZEjFZ3OngBHXCwOHcY4--13">
          <mxGeometry y="78" width="140" height="26" as="geometry" />
        </mxCell>
        <mxCell id="ZEjFZ3OngBHXCwOHcY4--17" value="-Fecha_Nacimiento" style="text;strokeColor=none;fillColor=none;align=left;verticalAlign=top;spacingLeft=4;spacingRight=4;overflow=hidden;rotatable=0;points=[[0,0.5],[1,0.5]];portConstraint=eastwest;" vertex="1" parent="ZEjFZ3OngBHXCwOHcY4--13">
          <mxGeometry y="104" width="140" height="26" as="geometry" />
        </mxCell>
        <mxCell id="ZEjFZ3OngBHXCwOHcY4--18" value="" style="endArrow=diamondThin;endFill=1;endSize=24;html=1;rounded=0;entryX=0.474;entryY=0.989;entryDx=0;entryDy=0;entryPerimeter=0;" edge="1" parent="1" source="ZEjFZ3OngBHXCwOHcY4--9" target="ZEjFZ3OngBHXCwOHcY4--4">
          <mxGeometry width="160" relative="1" as="geometry">
            <mxPoint x="850" y="230" as="sourcePoint" />
            <mxPoint x="1010" y="230" as="targetPoint" />
          </mxGeometry>
        </mxCell>
        <mxCell id="ZEjFZ3OngBHXCwOHcY4--34" value="1" style="text;align=center;fontStyle=1;verticalAlign=middle;spacingLeft=3;spacingRight=3;strokeColor=none;rotatable=0;points=[[0,0.5],[1,0.5]];portConstraint=eastwest;" vertex="1" parent="1">
          <mxGeometry x="790" y="174" width="20" height="26" as="geometry" />
        </mxCell>
        <mxCell id="ZEjFZ3OngBHXCwOHcY4--35" value="1..n" style="text;align=center;fontStyle=1;verticalAlign=middle;spacingLeft=3;spacingRight=3;strokeColor=none;rotatable=0;points=[[0,0.5],[1,0.5]];portConstraint=eastwest;" vertex="1" parent="1">
          <mxGeometry x="780" y="260" width="20" height="26" as="geometry" />
        </mxCell>
        <mxCell id="ZEjFZ3OngBHXCwOHcY4--41" value="Trabaja_En" style="endArrow=open;html=1;endSize=12;startArrow=diamondThin;startSize=14;startFill=0;edgeStyle=orthogonalEdgeStyle;rounded=0;entryX=0.996;entryY=0.173;entryDx=0;entryDy=0;entryPerimeter=0;exitX=0;exitY=0.192;exitDx=0;exitDy=0;exitPerimeter=0;" edge="1" parent="1" source="ZEjFZ3OngBHXCwOHcY4--5" target="ZEjFZ3OngBHXCwOHcY4--1">
          <mxGeometry relative="1" as="geometry">
            <mxPoint x="860" y="230" as="sourcePoint" />
            <mxPoint x="1020" y="230" as="targetPoint" />
          </mxGeometry>
        </mxCell>
        <mxCell id="ZEjFZ3OngBHXCwOHcY4--42" value="10..n" style="edgeLabel;resizable=0;html=1;align=left;verticalAlign=top;strokeColor=#000000;" connectable="0" vertex="1" parent="ZEjFZ3OngBHXCwOHcY4--41">
          <mxGeometry x="-1" relative="1" as="geometry">
            <mxPoint x="-30" as="offset" />
          </mxGeometry>
        </mxCell>
        <mxCell id="ZEjFZ3OngBHXCwOHcY4--43" value="1" style="edgeLabel;resizable=0;html=1;align=right;verticalAlign=top;strokeColor=#000000;" connectable="0" vertex="1" parent="ZEjFZ3OngBHXCwOHcY4--41">
          <mxGeometry x="1" relative="1" as="geometry">
            <mxPoint x="27" y="2" as="offset" />
          </mxGeometry>
        </mxCell>
        <mxCell id="ZEjFZ3OngBHXCwOHcY4--44" value="Atiende" style="endArrow=open;html=1;endSize=12;startArrow=diamondThin;startSize=14;startFill=0;edgeStyle=orthogonalEdgeStyle;rounded=0;entryX=0.5;entryY=0;entryDx=0;entryDy=0;" edge="1" parent="1" source="ZEjFZ3OngBHXCwOHcY4--5" target="ZEjFZ3OngBHXCwOHcY4--13">
          <mxGeometry relative="1" as="geometry">
            <mxPoint x="860" y="230" as="sourcePoint" />
            <mxPoint x="1020" y="230" as="targetPoint" />
          </mxGeometry>
        </mxCell>
        <mxCell id="ZEjFZ3OngBHXCwOHcY4--45" value="1..n" style="edgeLabel;resizable=0;html=1;align=left;verticalAlign=top;strokeColor=#000000;" connectable="0" vertex="1" parent="ZEjFZ3OngBHXCwOHcY4--44">
          <mxGeometry x="-1" relative="1" as="geometry">
            <mxPoint x="10" as="offset" />
          </mxGeometry>
        </mxCell>
        <mxCell id="ZEjFZ3OngBHXCwOHcY4--46" value="n" style="edgeLabel;resizable=0;html=1;align=right;verticalAlign=top;strokeColor=#000000;" connectable="0" vertex="1" parent="ZEjFZ3OngBHXCwOHcY4--44">
          <mxGeometry x="1" relative="1" as="geometry">
            <mxPoint x="30" y="-30" as="offset" />
          </mxGeometry>
        </mxCell>
        <mxCell id="ZEjFZ3OngBHXCwOHcY4--50" value="Esta_Internado" style="endArrow=open;html=1;endSize=12;startArrow=diamondThin;startSize=14;startFill=0;edgeStyle=orthogonalEdgeStyle;rounded=0;entryX=1;entryY=0.25;entryDx=0;entryDy=0;exitX=-0.004;exitY=0.1;exitDx=0;exitDy=0;exitPerimeter=0;" edge="1" parent="1" source="ZEjFZ3OngBHXCwOHcY4--13" target="ZEjFZ3OngBHXCwOHcY4--9">
          <mxGeometry x="-0.0328" y="-18" relative="1" as="geometry">
            <mxPoint x="860" y="350" as="sourcePoint" />
            <mxPoint x="1020" y="350" as="targetPoint" />
            <mxPoint x="18" y="-18" as="offset" />
          </mxGeometry>
        </mxCell>
        <mxCell id="ZEjFZ3OngBHXCwOHcY4--51" value="0..5" style="edgeLabel;resizable=0;html=1;align=left;verticalAlign=top;strokeColor=#000000;" connectable="0" vertex="1" parent="ZEjFZ3OngBHXCwOHcY4--50">
          <mxGeometry x="-1" relative="1" as="geometry">
            <mxPoint x="-39" y="12" as="offset" />
          </mxGeometry>
        </mxCell>
        <mxCell id="ZEjFZ3OngBHXCwOHcY4--52" value="0..1" style="edgeLabel;resizable=0;html=1;align=right;verticalAlign=top;strokeColor=#000000;" connectable="0" vertex="1" parent="ZEjFZ3OngBHXCwOHcY4--50">
          <mxGeometry x="1" relative="1" as="geometry">
            <mxPoint x="30" as="offset" />
          </mxGeometry>
        </mxCell>
      </root>
    </mxGraphModel>
  </diagram>
</mxfile>
